<svg xmlns="http://www.w3.org/2000/svg" preserveAspectRatio="xMidYMid" width="40" height="40" viewBox="0 0 40 40"><defs><style>

      .cls-2 {
        fill: #ffffff;
      }
    </style></defs><path d="M20 40C9 40 0 31 0 20 0 9 9 0 20 0 31 0 40 9 40 20 40 31 31 40 20 40ZM31.3 15.3C31.3 15.3 30.8 14.1 29.7 13.1 28.8 12.2 27.3 11.2 25.3 11.2 23.3 11.2 21.8 12.2 20.8 13.1 20.5 13.3 20.2 13.6 20 13.9 19.8 13.6 19.5 13.3 19.2 13.1 18.3 12.2 16.7 11.2 14.7 11.2 12.7 11.2 11.2 12.2 10.3 13.1 9.2 14.1 8.7 15.3 8.7 15.3 8.7 15.3 8.7 28.8 8.7 28.8 8.7 28.8 10.3 28.8 10.3 28.8 10.5 28.5 10.9 28 11.4 27.5 12.2 26.8 13.3 26.1 14.7 26.1 16.2 26.1 17.3 26.8 18.1 27.5 18.4 27.8 18.9 28.4 19.2 28.8 19.2 28.8 20.8 28.8 20.8 28.8 21.1 28.4 21.6 27.8 21.9 27.5 22.7 26.8 23.8 26.1 25.3 26.1 26.7 26.1 27.8 26.8 28.6 27.5 29.1 28 29.5 28.5 29.7 28.8 29.7 28.8 31.3 28.8 31.3 28.8 31.3 28.8 31.3 15.3 31.3 15.3ZM25.3 24.5C23.3 24.5 21.8 25.4 20.8 26.3 20.8 26.3 20.8 15.6 20.8 15.6 20.8 15.6 20.8 15.6 20.8 15.6 20.8 15.5 21.5 14.7 21.9 14.3 22.7 13.6 23.8 12.9 25.3 12.9 26.7 12.9 27.8 13.6 28.6 14.3 29.1 14.8 29.5 15.3 29.7 15.6 29.7 15.6 29.7 26.2 29.7 26.2 28.7 25.3 27.2 24.5 25.3 24.5 25.3 24.5 25.3 24.5 25.3 24.5ZM14.7 24.5C12.8 24.5 11.3 25.3 10.3 26.2 10.3 26.2 10.3 15.6 10.3 15.6 10.5 15.3 10.9 14.8 11.4 14.3 12.2 13.6 13.3 12.9 14.7 12.9 16.2 12.9 17.3 13.6 18.1 14.3 18.5 14.7 19.2 15.5 19.2 15.6 19.2 15.6 19.2 26.3 19.2 26.3 18.2 25.4 16.7 24.5 14.7 24.5 14.7 24.5 14.7 24.5 14.7 24.5Z" class="cls-2" fill-rule="evenodd"/></svg>