<svg xmlns="http://www.w3.org/2000/svg" preserveAspectRatio="xMidYMid" width="75" height="75" viewBox="0 0 75 75"><defs><style>

      .cls-2 {
        fill: #ffffff;
      }
    </style></defs><path d="M37.5 75C16.8 75 0 58.2 0 37.5 0 16.8 16.8 0 37.5 0 58.2 0 75 16.8 75 37.5 75 58.2 58.2 75 37.5 75ZM42.9 29.1C42.9 29.1 40.3 29.1 40.3 29.1 40.3 29.1 40.3 26.5 40.3 26.5 40.3 26.5 42.9 26.5 42.9 26.5 42.9 26.5 42.9 23.9 42.9 23.9 42.9 23.9 40.3 23.9 40.3 23.9 40.3 23.9 40.3 21.2 40.3 21.2 40.3 21.2 42.9 21.2 42.9 21.2 42.9 21.2 42.9 21.2 42.9 21.2 42.9 18.3 40.6 16 37.8 16 37.8 16 35.2 16 35.2 16 32.4 16 30.1 18.4 30.1 21.2 30.1 21.2 30.1 21.2 30.1 21.2 30.1 21.2 32.7 21.2 32.7 21.2 32.7 21.2 32.7 23.9 32.7 23.9 32.7 23.9 30.1 23.9 30.1 23.9 30.1 23.9 30.1 26.5 30.1 26.5 30.1 26.5 32.7 26.5 32.7 26.5 32.7 26.5 32.7 29.1 32.7 29.1 32.7 29.1 30.1 29.1 30.1 29.1 30.1 29.1 30.1 39.6 30.1 39.6 30.1 42.5 32.4 44.9 35.2 44.9 35.2 44.9 37.8 44.9 37.8 44.9 40.6 44.9 42.9 42.5 42.9 39.6 42.9 39.6 42.9 29.1 42.9 29.1ZM48 31.7C48 31.7 45.4 31.7 45.4 31.7 45.4 31.7 45.4 39.6 45.4 39.6 45.4 43.6 41.6 47.5 37.8 47.5 37.8 47.5 35.2 47.5 35.2 47.5 31.4 47.5 27.6 43.6 27.6 39.6 27.6 39.6 27.6 31.7 27.6 31.7 27.6 31.7 25 31.7 25 31.7 25 31.7 25 39.6 25 39.6 25 44.9 30.1 50.1 35.2 50.1 35.2 50.1 35.2 55.4 35.2 55.4 35.2 55.4 27.6 55.4 27.6 55.4 27.6 55.4 27.6 58 27.6 58 27.6 58 45.4 58 45.4 58 45.4 58 45.4 55.4 45.4 55.4 45.4 55.4 37.8 55.4 37.8 55.4 37.8 55.4 37.8 50.1 37.8 50.1 42.9 50.1 48 44.9 48 39.6 48 39.6 48 31.7 48 31.7ZM37.8 31.7C37.8 31.7 37.8 29.1 37.8 29.1 37.8 29.1 40.3 29.1 40.3 29.1 40.3 29.1 40.3 31.7 40.3 31.7 40.3 31.7 37.8 31.7 37.8 31.7ZM37.8 23.9C37.8 23.9 40.3 23.9 40.3 23.9 40.3 23.9 40.3 26.5 40.3 26.5 40.3 26.5 37.8 26.5 37.8 26.5 37.8 26.5 37.8 23.9 37.8 23.9ZM37.8 18.6C37.8 18.6 40.3 18.6 40.3 18.6 40.3 18.6 40.3 21.2 40.3 21.2 40.3 21.2 37.8 21.2 37.8 21.2 37.8 21.2 37.8 18.6 37.8 18.6ZM35.2 18.6C35.2 18.6 35.2 21.2 35.2 21.2 35.2 21.2 32.7 21.2 32.7 21.2 32.7 21.2 32.7 18.6 32.7 18.6 32.7 18.6 35.2 18.6 35.2 18.6ZM35.2 26.5C35.2 26.5 32.7 26.5 32.7 26.5 32.7 26.5 32.7 23.9 32.7 23.9 32.7 23.9 35.2 23.9 35.2 23.9 35.2 23.9 35.2 26.5 35.2 26.5ZM37.8 26.5C37.8 26.5 37.8 29.1 37.8 29.1 37.8 29.1 35.2 29.1 35.2 29.1 35.2 29.1 35.2 26.5 35.2 26.5 35.2 26.5 37.8 26.5 37.8 26.5ZM35.2 21.2C35.2 21.2 37.8 21.2 37.8 21.2 37.8 21.2 37.8 23.9 37.8 23.9 37.8 23.9 35.2 23.9 35.2 23.9 35.2 23.9 35.2 21.2 35.2 21.2ZM35.2 31.7C35.2 31.7 32.7 31.7 32.7 31.7 32.7 31.7 32.7 29.1 32.7 29.1 32.7 29.1 35.2 29.1 35.2 29.1 35.2 29.1 35.2 31.7 35.2 31.7Z" class="cls-2" fill-rule="evenodd"/></svg>