<svg xmlns="http://www.w3.org/2000/svg" xmlns:xlink="http://www.w3.org/1999/xlink" preserveAspectRatio="xMidYMid" width="40" height="40" viewBox="0 0 40 40">
  <defs>
    <style>

      .cls-2 {
        fill: #ffffff;
      }
    </style>
  </defs>
  <path d="M20.000,40.000 C8.954,40.000 -0.000,31.046 -0.000,20.000 C-0.000,8.954 8.954,-0.000 20.000,-0.000 C31.046,-0.000 40.000,8.954 40.000,20.000 C40.000,31.046 31.046,40.000 20.000,40.000 ZM31.319,15.312 C31.320,15.312 30.804,14.082 29.749,13.074 C28.795,12.162 27.281,11.239 25.277,11.239 C23.274,11.239 21.752,12.170 20.770,13.068 C20.467,13.344 20.209,13.617 20.000,13.866 C19.792,13.617 19.535,13.343 19.233,13.067 C18.251,12.169 16.730,11.238 14.725,11.238 C12.722,11.238 11.207,12.161 10.254,13.073 C9.198,14.082 8.683,15.312 8.683,15.312 C8.683,15.312 8.683,28.758 8.683,28.758 C8.683,28.758 10.346,28.758 10.346,28.758 C10.517,28.491 10.888,27.973 11.441,27.477 C12.212,26.786 13.285,26.148 14.725,26.145 C16.209,26.145 17.339,26.825 18.131,27.547 C18.423,27.814 18.923,28.447 19.161,28.758 C19.161,28.758 20.842,28.758 20.842,28.758 C21.081,28.447 21.580,27.815 21.872,27.547 C22.666,26.825 23.796,26.145 25.277,26.145 C26.718,26.148 27.791,26.785 28.563,27.477 C29.116,27.973 29.486,28.491 29.658,28.758 C29.658,28.758 31.319,28.758 31.319,28.758 C31.319,28.758 31.319,15.312 31.319,15.312 ZM25.274,24.456 C23.296,24.456 21.787,25.367 20.809,26.251 C20.809,26.251 20.809,15.558 20.809,15.558 C20.809,15.558 20.810,15.558 20.810,15.558 C20.849,15.495 21.479,14.686 21.870,14.329 C22.666,13.611 23.793,12.929 25.276,12.929 C26.717,12.929 27.791,13.566 28.562,14.255 C29.119,14.760 29.490,15.284 29.660,15.550 C29.660,15.550 29.660,26.213 29.660,26.213 C28.698,25.339 27.223,24.456 25.276,24.456 C25.276,24.456 25.274,24.456 25.274,24.456 ZM14.724,24.459 C12.777,24.459 11.303,25.339 10.341,26.216 C10.341,26.216 10.341,15.550 10.341,15.550 C10.511,15.284 10.881,14.760 11.440,14.255 C12.211,13.566 13.285,12.929 14.725,12.929 C16.209,12.929 17.338,13.612 18.131,14.329 C18.522,14.686 19.152,15.495 19.192,15.558 C19.192,15.558 19.192,26.254 19.192,26.254 C18.213,25.368 16.705,24.459 14.725,24.459 C14.725,24.459 14.724,24.459 14.724,24.459 Z" id="path-1" class="cls-2" fill-rule="evenodd"/>
</svg>
